<svg xmlns="http://www.w3.org/2000/svg" viewBox="0 0 32 32">
    <title>94-House-Plan</title>
    <g id="_94-House-Plan" data-name="94-House-Plan">
        <path d="M15,23H10V20h5a1,1,0,0,0,1-1V13H14v5H8v6a1,1,0,0,0,1,1h6Z" />
        <path
            d="M29,0H10V2h4V8H8v2h7a1,1,0,0,0,1-1V2H29a1,1,0,0,1,1,1v9H24V5H22v8a1,1,0,0,0,1,1h7v4H20a1,1,0,0,0-1,1v8h2V20h9v3H25a2,2,0,0,0-2,2v5H10v2H24a1,1,0,0,0,.71-.29l7-7A1,1,0,0,0,32,24V3A3,3,0,0,0,29,0Z" />
        <path
            d="M6.29,4.71,7.71,3.29l-3-3a1,1,0,0,0-1.41,0l-3,3L1.71,4.71,3,3.41V28.59L1.71,27.29.29,28.71l3,3a1,1,0,0,0,1.41,0l3-3L6.29,27.29,5,28.59V3.41Z" />
    </g>
</svg>