<?xml version="1.0" encoding="UTF-8"?>
<svg id="Layer_1" data-name="Layer 1" xmlns="http://www.w3.org/2000/svg" viewBox="0 0 67.81 92.23">
  <g isolation="isolate">
    <g isolation="isolate">
      <path d="M14.81,80.23c-2.34.05-4.56-.53-6.65-1.74s-3.74-2.85-4.95-4.95c-1.21-2.09-1.79-4.31-1.74-6.65-.05-2.34.53-4.55,1.74-6.63,1.21-2.08,2.85-3.73,4.95-4.95s4.31-1.8,6.65-1.76c2.02,0,3.89.44,5.62,1.33s3.18,2.15,4.38,3.81l-5.65,3.31c-1.15-1.29-2.63-1.93-4.45-1.93s-3.45.67-4.76,2.02c-1.31,1.34-1.96,2.95-1.96,4.81s.66,3.46,1.96,4.81c1.31,1.34,2.89,2.02,4.76,2.02s3.32-.64,4.45-1.93l5.65,3.31c-1.19,1.65-2.65,2.92-4.38,3.81-1.72.88-3.6,1.33-5.62,1.33Z" stroke-width="0"/>
      <path d="M38.01,80.23c-2.34.05-4.56-.53-6.65-1.74-2.09-1.21-3.74-2.85-4.95-4.95-1.21-2.09-1.79-4.31-1.74-6.65-.05-2.34.53-4.55,1.74-6.63,1.21-2.08,2.85-3.73,4.95-4.95,2.09-1.22,4.31-1.8,6.65-1.76,2.02,0,3.89.44,5.62,1.33,1.72.88,3.18,2.15,4.38,3.81l-5.65,3.31c-1.15-1.29-2.63-1.93-4.45-1.93s-3.45.67-4.76,2.02c-1.31,1.34-1.96,2.95-1.96,4.81s.65,3.46,1.96,4.81c1.31,1.34,2.9,2.02,4.76,2.02s3.32-.64,4.45-1.93l5.65,3.31c-1.19,1.65-2.65,2.92-4.38,3.81-1.72.88-3.6,1.33-5.62,1.33Z" stroke-width="0"/>
      <path d="M56.93,72.79h10.17v6.51h-16.68v-24.81h6.51v18.3Z" stroke-width="0"/>
    </g>
  </g>
  <g isolation="isolate">
    <g isolation="isolate">
      <path d="M2.51,92.22c-.41,0-.8-.09-1.17-.31s-.66-.5-.87-.87c-.21-.37-.32-.76-.31-1.17,0-.41.09-.8.31-1.17.21-.37.5-.66.87-.87.37-.21.76-.32,1.17-.31.36,0,.69.08.99.23.3.16.56.38.77.67l-1,.58c-.2-.23-.46-.34-.78-.34s-.61.12-.84.36c-.23.24-.35.52-.35.85s.12.61.35.85c.23.24.51.36.84.36s.59-.11.78-.34l1,.58c-.21.29-.47.52-.77.67-.3.16-.63.23-.99.23Z" stroke-width="0"/>
      <path d="M8.51,92.06h-1.15v-1.62h-1.48v1.62h-1.15v-4.38h1.15v1.61h1.48v-1.61h1.15v4.38Z" stroke-width="0"/>
      <path d="M12.29,92.06l-.27-.7h-1.56l-.27.7h-1.26l1.79-4.38h1.04l1.77,4.38h-1.25ZM10.8,90.46h.86l-.43-1.12-.43,1.12Z" stroke-width="0"/>
      <path d="M16.75,90.04v-2.35h1.15v4.38h-.97l-1.8-2.35v2.35h-1.15v-4.38h.97l1.8,2.35Z" stroke-width="0"/>
      <path d="M22.5,89.87c.01.59-.2,1.1-.64,1.54-.44.44-.96.66-1.55.64h-1.67v-4.38h1.67c.38,0,.75.09,1.09.29.34.2.61.47.81.81.2.34.3.7.29,1.09ZM19.79,88.83v2.08h.5c.31,0,.56-.1.77-.29.2-.19.3-.45.3-.75s-.1-.56-.3-.75c-.2-.19-.46-.29-.77-.29h-.5Z" stroke-width="0"/>
      <path d="M24.23,92.06h-1.15v-4.38h1.15v4.38Z" stroke-width="0"/>
      <path d="M27.15,89.5h1.88v1.87c-.47.57-1.1.86-1.88.86-.41,0-.8-.09-1.17-.31s-.66-.5-.87-.87c-.21-.37-.32-.76-.31-1.17,0-.41.09-.8.31-1.17.21-.37.5-.66.87-.87.37-.21.76-.32,1.17-.31.71,0,1.26.23,1.65.69l-.83.78c-.19-.21-.47-.32-.84-.32s-.64.11-.86.33c-.21.22-.32.51-.32.87s.11.65.32.87c.22.21.51.32.86.32.31,0,.56-.07.75-.22v-.36h-.74s0-.97,0-.97Z" stroke-width="0"/>
      <path d="M32.46,92.06l-.27-.7h-1.56l-.27.7h-1.26l1.79-4.38h1.04l1.77,4.38h-1.25ZM30.97,90.46h.86l-.43-1.12-.43,1.12Z" stroke-width="0"/>
      <path d="M37.75,92.06h-1.28l-.77-1.36h-.4v1.36h-1.15v-4.38h1.74c.43,0,.79.15,1.09.44s.45.64.45,1.06c0,.25-.06.48-.18.69-.12.21-.28.39-.49.53l.98,1.67ZM35.3,88.83v.89h.39c.19,0,.34-.04.44-.13.1-.08.15-.2.15-.35,0-.27-.18-.41-.53-.41h-.44Z" stroke-width="0"/>
      <path d="M41.96,92.06h-1.15v-1.62h-1.48v1.62h-1.15v-4.38h1.15v1.61h1.48v-1.61h1.15v4.38Z" stroke-width="0"/>
      <path d="M44.85,92.22c-.41,0-.8-.09-1.17-.31-.37-.21-.66-.5-.87-.87-.21-.37-.31-.76-.31-1.17,0-.41.09-.8.31-1.17.21-.37.5-.66.87-.87.37-.21.76-.32,1.17-.31.36,0,.69.08.99.23.3.16.56.38.77.67l-1,.58c-.2-.23-.46-.34-.78-.34s-.61.12-.84.36c-.23.24-.35.52-.35.85s.12.61.35.85c.23.24.51.36.84.36s.58-.11.78-.34l1,.58c-.21.29-.47.52-.77.67-.3.16-.63.23-.99.23Z" stroke-width="0"/>
      <path d="M48.25,92.06h-1.15v-4.38h1.15v4.38Z" stroke-width="0"/>
      <path d="M52.3,88.83h-1.17v3.23h-1.15v-3.23h-1.17v-1.15h3.49v1.15Z" stroke-width="0"/>
      <path d="M55.35,90.26v1.8h-1.23v-1.8l-1.56-2.58h1.29l.88,1.43.89-1.43h1.28l-1.56,2.58Z" stroke-width="0"/>
      <path d="M58.5,90.91h1.79v1.15h-2.94v-4.38h1.15v3.23Z" stroke-width="0"/>
      <path d="M62.72,90.26v1.8h-1.23v-1.8l-1.56-2.58h1.29l.88,1.43.89-1.43h1.28l-1.56,2.58Z" stroke-width="0"/>
      <path d="M67.77,88.83h-1.94v.54h1.64v.98h-1.64v1.7h-1.15v-4.38h3.09v1.15Z" stroke-width="0"/>
    </g>
  </g>
  <path d="M0,84.28h67.75v.55H0v-.55Z" fill-rule="evenodd" stroke-width="0"/>
  <path d="M27.7,10.68c-.35,0-.71-.04-1.06-.15-.35-.11-.71-.25-1.06-.53.35-.28.71-.43,1.06-.53.35-.1.71-.15,1.06-.15.35,0,.71.04,1.06.14.35.11.71.25,1.06.53-.35.29-.71.43-1.06.53-.35.1-.71.14-1.06.14ZM28.76,20c-.35.1-.71.14-1.06.14-.35,0-.71-.04-1.06-.15-.35-.11-.71-.25-1.06-.53.35-.28.71-.43,1.06-.53.35-.1.71-.14,1.06-.15.35,0,.71.04,1.06.14.35.11.71.25,1.06.53-.35.29-.71.43-1.06.53ZM31.11,15.4c-.35-.11-.71-.25-1.06-.53.35-.28.71-.43,1.06-.53.35-.1.71-.15,1.06-.15.35,0,.71.04,1.06.14.35.11.71.25,1.06.53-.35.29-.71.43-1.06.53-.35.1-.71.14-1.06.14-.35,0-.71-.04-1.06-.15ZM36.94,10.68c-.35,0-.71-.04-1.06-.15-.35-.11-.71-.25-1.06-.53.35-.28.71-.43,1.06-.53.35-.1.71-.15,1.06-.15.35,0,.71.04,1.06.14.35.11.71.25,1.06.53-.35.29-.71.43-1.06.53-.35.1-.71.14-1.06.14ZM38,20c-.35.1-.71.14-1.06.14-.35,0-.71-.04-1.06-.15-.35-.11-.71-.25-1.06-.53.35-.28.71-.43,1.06-.53.35-.1.71-.14,1.06-.15.35,0,.71.04,1.06.14.35.11.71.25,1.06.53-.35.29-.71.43-1.06.53ZM24.62,48.52c.15-.01.3-.02.46-.03,3.4-.24,11.48-2.94,16.95-6.04,1.47-.83,2.76-1.7,3.72-2.55,4.51-4.03,9.97-6.37,12.02-6.55,2.04-.18,11.72,2.76,9.79-3.12-1.89-5.8-13.65-7-15.66-4.38,0,.08,0,.14,0,.23.34.5.7.99,1.07,1.48l2.04,2.68.43.57-.59.4c-.3.21-.65.38-1.02.48-.37.1-.75.13-1.12.11-.74-.06-1.4-.34-1.95-.7-.56-.35-1.04-.79-1.46-1.26-.42-.47-.78-.98-1.08-1.53.26.17.52.35.77.52.25.17.5.34.76.5.5.32,1.01.61,1.53.82.51.21,1.03.36,1.51.35.24,0,.46-.03.67-.1-.18-.25-.35-.51-.51-.77-.31-.49-.6-1-.86-1.52-.26-.52-.5-1.06-.68-1.63h0c-2.37,2.17-9.55,1.59-9.55,1.59v-7.03c0-2.67-.32-16.99-.38-19.59,0-.27-.13-.53-.34-.71-1.47-1.21-2.63-.66-3.17-.26-.2.15-.33.37-.37.62-.16,1.1-.68,4.62-.97,5.3v.02c-.25.54-1.05.42-1.13-.16-.16-1.1-.54-3.74-.63-4.86-.03-.35-.24-.66-.57-.79-1.24-.51-2.06-.31-2.51-.07-.27.14-.44.42-.48.72-.13,1.22-.53,4.95-.54,5.38,0,.16-.1.24-.23.29-.39.14-.8-.14-.85-.55-.13-1.13-.43-3.71-.52-4.87-.03-.4-.31-.74-.7-.84-.59-.15-1.47-.24-2.22.23-1.26.78-1.14,8.71-2.34,13.52-1.16,4.62-1.76,4.47-5.97,4.98-.17.02-.34.04-.52.07-4.69.6-11.06-7.09-13.7-8.47S.2,12.38.08,13.1c-.09.55,1.29,7.68,3.2,16.33.4,0,.81-.23,1.23-.46.73-.41,1.48-.79,2.24-1.16,1.52-.73,3.08-1.37,4.68-1.92,2.83-.98,5.77-1.69,8.76-2.08.38-.05.75-.09,1.13-.13,3.38-.34,6.81-.24,10.15.41,3.33.65,6.56,1.85,9.41,3.62-.39-.15-.78-.31-1.17-.45l-.59-.22-.59-.2-.29-.1-.3-.1-.59-.19c-.4-.11-.79-.24-1.2-.34-.8-.22-1.61-.4-2.41-.57-.81-.16-1.62-.29-2.44-.4-3.26-.43-6.57-.44-9.84-.11-.16.02-.32.04-.48.05-3.11.34-6.19.97-9.22,1.82-1.59.45-3.17.96-4.74,1.52-.79.27-1.56.58-2.34.88-.39.15-.77.31-1.16.48-.07.03-.13.06-.19.08.58,2.71,1.21,5.58,1.87,8.47,2.77,12.25,15.59,10.47,16.09,10.4-.01,0,0,0,.22,0M15.69,33.84c.04-.23.08-.45.13-.68.05.23.09.45.13.68.04.23.07.45.11.68.04.3.08.61.12.91l.29-.03.65-.05c.43-.03.86-.06,1.29-.08l.54-.03.07.59c.1.93.2,1.86.28,2.79.04.47.08.93.12,1.4l.05.7.05.7.18,2.79c.03.46.07.93.12,1.39.03.23.06.46.1.69.05.22.09.46.24.64-.11-.04-.21-.14-.28-.23-.08-.1-.15-.2-.21-.31-.12-.21-.23-.44-.32-.66-.19-.45-.33-.91-.46-1.37-.26-.92-.45-1.86-.6-2.79l-.1-.7-.09-.71c-.06-.47-.1-.94-.14-1.41-.06-.77-.1-1.53-.12-2.3-.23-.01-.47-.03-.7-.05l-.65-.05-.65-.06-.44-.04.04-.36c.05-.45.1-.9.17-1.35.03-.23.07-.45.11-.68ZM9.35,32.54c-1.71-.11-3.41-.23-5.12-.46,1.71-.23,3.41-.35,5.12-.46,1.71-.1,3.42-.16,5.12-.19,1.71-.03,3.42-.03,5.12-.01,1.55.02,3.1.07,4.65.14.02-.31.04-.63.06-.94.02-.31.04-.61.07-.92.01-.18.02-.36.04-.54.04-.49.08-.97.13-1.46.05-.49.11-.97.17-1.46.07.49.12.97.17,1.46.05.49.09.97.13,1.46.04.47.07.94.1,1.41,0,.01,0,.03,0,.04.03.49.06.97.09,1.46l.02.47-.52.03c-1.71.09-3.41.14-5.12.17-1.71.02-3.42.02-5.12-.01-1.71-.03-3.41-.09-5.12-.2ZM32.65,27.4l.09.2.16.4c.11.26.21.53.32.78.22.51.45,1.01.72,1.44.27.44.59.82.94,1.05.18.11.35.19.54.24.19.04.39.04.6.03.11-.02.22-.02.33-.06l.17-.04.18-.06c.12-.03.23-.08.35-.12.06-.02.11-.05.16-.07.05-.03.11-.05.16-.08.42-.22.79-.5,1.07-.88.29-.38.49-.84.61-1.36.12-.52.17-1.08.16-1.66.15.25.26.53.35.81.09.29.14.58.16.89.04.61-.06,1.27-.36,1.86-.29.6-.79,1.1-1.34,1.45-.28.17-.57.31-.87.43l-.23.08-.24.07c-.16.05-.34.07-.51.09-.35.03-.72.02-1.08-.08-.36-.1-.69-.28-.97-.5-.28-.22-.51-.49-.69-.76-.18-.27-.33-.56-.44-.85-.05-.12-.09-.25-.13-.38-.05.15-.11.3-.19.45-.29.6-.79,1.1-1.34,1.45-.28.17-.57.31-.87.43l-.23.08-.24.07c-.16.05-.34.07-.51.09-.35.03-.72.02-1.08-.08-.36-.1-.69-.28-.97-.5-.28-.22-.51-.49-.69-.76-.18-.27-.33-.56-.44-.85-.23-.58-.35-1.17-.41-1.75-.03-.29-.05-.58-.05-.87,0-.15,0-.29,0-.43v-.22c0-.07.02-.14,0-.21.05.05.08.13.11.19l.09.2.16.4c.11.26.21.53.32.78.22.51.45,1.01.72,1.44.27.44.59.82.94,1.05.18.11.35.19.54.24.19.04.39.04.6.03.11-.02.22-.02.33-.06l.17-.04.18-.06c.12-.03.23-.08.35-.12.06-.02.11-.05.16-.07.05-.03.11-.05.16-.08.42-.22.79-.5,1.07-.88.29-.38.49-.84.61-1.36.12-.52.17-1.08.16-1.66,0,.01.02.03.02.05,0-.02,0-.03,0-.05.05.05.08.13.11.19ZM21.68,37.6c.13-.6.3-1.18.57-1.73.03,1.21.11,2.36.29,3.48.18,1.12.45,2.2.9,3.19.43,1,1.04,1.89,1.82,2.68.78.79,1.72,1.43,2.76,2.07-.3-.03-.61-.06-.9-.13-.3-.07-.6-.14-.88-.26-.59-.2-1.14-.51-1.66-.86l-.38-.29c-.12-.1-.24-.21-.36-.32-.06-.05-.12-.11-.17-.16-.06-.06-.11-.12-.16-.18l-.16-.18-.08-.09-.07-.09c-.41-.5-.73-1.06-.99-1.64-.26-.58-.44-1.19-.56-1.81-.11-.62-.17-1.24-.16-1.86.01-.62.07-1.23.2-1.83Z" fill-rule="evenodd" stroke-width="0"/>
</svg>