<svg xmlns="http://www.w3.org/2000/svg" width="0" height="0">
  <defs>
    <symbol id="Master-Plan" viewBox="0 0 32 32">
      <path
        d="M29,0H3A3,3,0,0,0,0,3V29a3,3,0,0,0,3,3H29a3,3,0,0,0,3-3V3A3,3,0,0,0,29,0Zm1,12H24V5H22v8a1,1,0,0,0,1,1h7v4H20a1,1,0,0,0-1,1v8h2V20h9v9a1,1,0,0,1-1,1H3a1,1,0,0,1-1-1V20H8v4a1,1,0,0,0,1,1h6V23H10V20h5a1,1,0,0,0,1-1V13H14v5H2V3A1,1,0,0,1,3,2H14V8H7v2h8a1,1,0,0,0,1-1V2H29a1,1,0,0,1,1,1Z" />
    </symbol>
    <symbol id="Sectoral-Division" viewBox="0 0 32 32">
      <g data-name="94-House-Plan">
        <path d="M15 23h-5v-3h5a1 1 0 0 0 1-1v-6h-2v5H8v6a1 1 0 0 0 1 1h6z" />
        <path
          d="M29 0H10v2h4v6H8v2h7a1 1 0 0 0 1-1V2h13a1 1 0 0 1 1 1v9h-6V5h-2v8a1 1 0 0 0 1 1h7v4H20a1 1 0 0 0-1 1v8h2v-7h9v3h-5a2 2 0 0 0-2 2v5H10v2h14a1 1 0 0 0 .71-.29l7-7A1 1 0 0 0 32 24V3a3 3 0 0 0-3-3zM6.29 4.71l1.42-1.42-3-3a1 1 0 0 0-1.41 0l-3 3 1.41 1.42L3 3.41v25.18l-1.29-1.3-1.42 1.42 3 3a1 1 0 0 0 1.41 0l3-3-1.41-1.42L5 28.59V3.41z" />
      </g>
    </symbol>
    <symbol id="Greenery" viewBox="0 0 24 24">
      <path
        d="M20.998 3V5C20.998 14.6274 15.6255 19 8.99805 19L5.24077 18.9999C5.0786 19.912 4.99805 20.907 4.99805 22H2.99805C2.99805 20.6373 3.11376 19.3997 3.34381 18.2682C3.1133 16.9741 2.99805 15.2176 2.99805 13C2.99805 7.47715 7.4752 3 12.998 3C14.998 3 16.998 4 20.998 3ZM12.998 5C8.57977 5 4.99805 8.58172 4.99805 13C4.99805 13.3624 5.00125 13.7111 5.00759 14.0459C6.26198 12.0684 8.09902 10.5048 10.5019 9.13176L11.4942 10.8682C8.6393 12.4996 6.74554 14.3535 5.77329 16.9998L8.99805 17C15.0132 17 18.8692 13.0269 18.9949 5.38766C17.6229 5.52113 16.3481 5.436 14.7754 5.20009C13.6243 5.02742 13.3988 5 12.998 5Z"></path>
    </symbol>
    <symbol id="Grid-Layout" viewBox="0 0 24 24">

      <path
        d="M22 20C22 20.5523 21.5523 21 21 21H3C2.44772 21 2 20.5523 2 20V4C2 3.44772 2.44772 3 3 3H21C21.5523 3 22 3.44772 22 4V20ZM11 15H4V19H11V15ZM20 11H13V19H20V11ZM11 5H4V13H11V5ZM20 5H13V9H20V5Z"></path>

    </symbol>
    <symbol id="Zoning" viewBox="0 0 24 24">
      <path
        d="M4 12C4 9.84636 4.85101 7.89148 6.23509 6.45329C6.35689 6.56446 6.46246 6.70541 6.54129 6.88256C6.74529 7.34029 6.74529 7.8112 6.74529 8.22764C6.74488 8.55598 6.74449 8.86735 6.84992 9.09302C6.99443 9.40134 7.6164 9.53227 8.16548 9.64736L8.18515 9.6515C8.37513 9.69149 8.57011 9.73254 8.74797 9.78176C9.25405 9.92233 9.64554 10.3765 9.95938 10.7412C10.0896 10.8931 10.2819 11.1163 10.3783 11.1717C10.4286 11.1356 10.59 10.9608 10.6699 10.6735C10.7307 10.4547 10.7134 10.2597 10.6239 10.1543C10.0648 9.49445 10.0952 8.2232 10.268 7.75495C10.5402 7.01606 11.3905 7.07058 12.012 7.11097L12.0178 7.11135C12.2474 7.12612 12.464 7.14006 12.6257 7.11976C13.097 7.06062 13.3212 6.50376 13.4611 6.15632C13.5059 6.0449 13.5421 5.95502 13.575 5.91C13.8398 5.54726 14.5987 5.01813 15.1519 4.64482C17.2241 5.53398 18.8451 7.27325 19.5762 9.42384C20.4295 9.71393 21.2182 10.1442 21.9146 10.6871C21.2717 5.7847 17.0778 2 12 2C6.47715 2 2 6.47715 2 12C2 17.0778 5.7847 21.2717 10.6871 21.9146C10.1442 21.2182 9.71393 20.4295 9.42384 19.5762C6.26947 18.5039 4 15.517 4 12ZM17 13C14.7909 13 13 14.7909 13 17C13 19.2091 14.7909 21 17 21C19.2091 21 21 19.2091 21 17C21 14.7909 19.2091 13 17 13ZM11 17C11 13.6863 13.6863 11 17 11C20.3137 11 23 13.6863 23 17C23 20.3137 20.3137 23 17 23C13.6863 23 11 20.3137 11 17ZM16 14V18H20V16H18V14H16Z"></path>
    </symbol>
    <symbol id="Architecture" viewBox="0 0 24 24">
      <path
        d="M21 19H23V21H1V19H3V4C3 3.44772 3.44772 3 4 3H14C14.5523 3 15 3.44772 15 4V19H19V11H17V9H20C20.5523 9 21 9.44772 21 10V19ZM5 5V19H13V5H5ZM7 11H11V13H7V11ZM7 7H11V9H7V7Z"></path>
    </symbol>
    <symbol id="Educational" viewBox="0 0 24 24">
      <path
        d="M4 11.3333L0 9L12 2L24 9V17.5H22V10.1667L20 11.3333V18.0113L19.7774 18.2864C17.9457 20.5499 15.1418 22 12 22C8.85817 22 6.05429 20.5499 4.22263 18.2864L4 18.0113V11.3333ZM6 12.5V17.2917C7.46721 18.954 9.61112 20 12 20C14.3889 20 16.5328 18.954 18 17.2917V12.5L12 16L6 12.5ZM3.96927 9L12 13.6846L20.0307 9L12 4.31541L3.96927 9Z"></path>

    </symbol>
    <symbol id="Transportation" viewBox="0 0 24 24">
      <path
        d="M17 20H7V21C7 21.5523 6.55228 22 6 22H5C4.44772 22 4 21.5523 4 21V20H3V12H2V8H3V5C3 3.89543 3.89543 3 5 3H19C20.1046 3 21 3.89543 21 5V8H22V12H21V20H20V21C20 21.5523 19.5523 22 19 22H18C17.4477 22 17 21.5523 17 21V20ZM19 12V5H5V12H19ZM19 14H5V18H19V14ZM6 15H10V17H6V15ZM14 15H18V17H14V15Z"></path>
    </symbol>
    <symbol id="Life" viewBox="0 0 24 24">
      <path
        d="M11.9999 2.07611L12.4551 2.30879C14.2208 3.21143 15.7328 4.53809 16.8573 6.15473C17.7852 5.71402 18.7788 5.38872 19.8193 5.19758L21 4.98071V12.9998C21 17.9703 16.9706 22 12 22C7.02944 22 3 17.9705 3 13V4.98071L4.18066 5.19758C5.22115 5.38871 6.2147 5.71398 7.14253 6.15465C8.26706 4.53805 9.77902 3.21141 11.5447 2.30879L11.9999 2.07611ZM8.87757 7.16504C10.1073 8.02646 11.1679 9.11266 12 10.3644C12.8322 9.11272 13.893 8.02642 15.1223 7.16515C14.2952 6.01594 13.2302 5.04923 11.9999 4.33741C10.7697 5.0492 9.70468 6.01587 8.87757 7.16504ZM10.8993 12.4338C10.0182 10.7202 8.65593 9.2932 6.99112 8.33225C6.3667 7.97183 5.6999 7.67707 5 7.45728V13C5 16.2899 7.26961 19.0497 10.3285 19.7992C10.1137 18.9004 10 17.9629 10 16.9998C10 15.383 10.3198 13.8411 10.8993 12.4338ZM12.4531 19.9855C16.1079 19.752 19 16.7136 19 12.9998V7.45728C18.3 7.67709 17.6332 7.97187 17.0088 8.33233C14.0127 10.0617 12 13.2963 12 16.9998C12 18.041 12.1588 19.0436 12.4531 19.9855Z"></path>
    </symbol>
    <symbol id="test" viewBox="0 0 24 24">

    </symbol>

  </defs>
</svg>